<svg xmlns="http://www.w3.org/2000/svg" width="732" height="732" viewBox="0 0 732 732"><path fill="#005cb6" d="M390.981 369.14c4.037-.281 11.852.003 16.217.023l30.185.043 102.217.037c-.589 10.587-.14 25.438-.097 36.24l-111.313-.057c.337 14.83-.047 30.601.053 45.573 35.209.113 72.19.691 107.318.026-.223 11.456-.086 23.26-.083 34.742-27.47-.372-55.636-.054-83.161-.057l-24.141.032.01 44.731 111.402-.035c-.61 10.311-.086 26.177-.036 36.936-16.96-.369-35.866.141-53.055.145l-95.189-.247c-.44-5.943-.225-14.034-.217-20.089l.118-36.425.021-88.207c-.005-17.59.219-35.868-.249-53.411"/><path fill="#00b332" d="M289.106 365.441a58 58 0 0 1 3.412-.147c31.311-.596 55.064 8.47 77.649 30.163-5.256 6.217-18.276 17.919-24.676 24.018-12.979-10.492-24.507-17.09-41.64-18.305-18.483-1.311-37.744 2.903-52.037 15.183-29.15 25.046-30.202 77.274-2.258 103.571 11.334 10.667 26.934 15.653 42.285 16.571 20.585 1.231 39.209-5.396 54.569-19.036.319-.126.757-.123 1.131-.157 3.838 2.12 21.77 21.13 25.476 25.255-20.518 17.855-38.039 26.936-66.094 28.862-29.499 2.072-61.173-4.409-83.344-25.153-40.305-37.71-41.211-109.683-4.167-149.89 17.934-19.465 43.74-29.771 69.694-30.935"/><path fill="#005cb6" d="M315.585 160.351c15.865 6.55 35.272 16.348 51.127 23.799l87.945 41.248a2774 2774 0 0 0 34.82 16.298c.401 9.845-.035 23.112-.033 33.263l.036 74.589c-6.86-.102-14.004.029-20.885.058.542-31.295-.492-63.256.09-94.557l-70.186-33.047c-20.599-9.637-41.798-19.171-62.203-29.111.606 15.006-.312 40.358.151 56.055l.413.55c9.962-4.899 20.488-9.589 30.601-14.242l.011 91.181-.001 29.427c.001 5.259-.163 12.127.201 17.262-7.795-6.441-12.336-9.762-20.906-15.123-.353-9.883-.077-21.439-.082-31.425l.033-58.498c-23.473 10.303-46.471 21.696-69.672 32.609-.264 15.252-.026 31.041-.024 46.342a141.5 141.5 0 0 0-20.673 5.426c-.487-21.201-.05-43.872-.061-65.211 2.58-1.31 5.488-2.536 8.153-3.731 17.117-7.676 33.941-16.503 51.143-23.936-.159-4.134-.133-8.707-.057-12.863.522-28.658-.714-57.748.059-86.363"/></svg>